<?xml version="1.0" encoding="utf-8"?>
<!-- Generator: Adobe Illustrator 27.0.0, SVG Export Plug-In . SVG Version: 6.00 Build 0)  -->
<svg version="1.1" id="Camada_1" xmlns="http://www.w3.org/2000/svg" xmlns:xlink="http://www.w3.org/1999/xlink" x="0px" y="0px"
	 viewBox="0 0 110 135" style="enable-background:new 0 0 110 135;" xml:space="preserve">
<style type="text/css">
	.st0{fill-rule:evenodd;clip-rule:evenodd;fill:#315432;}
</style>
<path class="st0" d="M46.4,98.1C46.3,98,46.2,98,46,98h-4.4c-0.7,0-1.2,0.5-1.3,1.1l-0.3,1.2l-0.2,0.6c-0.3,0.3-0.7,0.4-1.1,0.4
	h-3.8c-0.4,0-0.8-0.2-1.1-0.5s-0.5-0.7-0.5-1.1V84.9h13.1v-2.7H33.3V53.9h21.5v11.8h2.7V47.6c0-4-3.5-7.5-8.1-8v-5.5h1.1
	c0.7,0,1.3-0.6,1.3-1.3v-5.4c0-0.7-0.6-1.3-1.3-1.3H37.6c-0.7,0-1.3,0.6-1.3,1.3v5.4c0,0.7,0.6,1.3,1.3,1.3h1.1v5.5
	c-4.6,0.6-8.1,4-8.1,8v52.3c0,1.1,0.4,2.2,1.2,3s1.9,1.2,3,1.2h3.8c1.1,0,2.2-0.4,3-1.2c0.3-0.3,0.5-0.7,0.7-1.3l0.3-0.8h2.2
	l0.2,0.6c0.3,0.7,0.6,1.3,1,1.6c0.1,0.1,0.2,0.1,0.3,0.2v-5.1H46.4z M39,28.7h10.2v2.7H39V28.7z M33.3,47.5c0-3,3.1-5.4,6.7-5.4l0,0
	c0.7,0,1.3-0.6,1.3-1.3v-6.1h5.4v6.1c0,0.7,0.6,1.3,1.3,1.3c3.7,0,6.7,2.4,6.7,5.4v3.6H33.3V47.5z"/>
<path class="st0" d="M77.2,54.9c-0.9-0.9-2.1-1.6-3.4-1.8V32.8c0-0.7-0.6-1.3-1.3-1.3h-5.4c-0.7,0-1.3,0.6-1.3,1.3v20.3
	c-1.3,0.3-2.5,0.9-3.4,1.8c-1.3,1.3-2,3-2,4.8v6.1H63v-6.1c0-1.1,0.4-2.1,1.2-2.9s1.8-1.2,2.9-1.2c0.4,0,0.7-0.1,1-0.4
	c0.3-0.3,0.4-0.6,0.4-1V39.5h2.7v14.8c0,0.4,0.1,0.7,0.4,1s0.6,0.4,1,0.4c1.1,0,2.1,0.4,2.9,1.2s1.2,1.8,1.2,2.9v10.8h-6.3l0.4,1.7
	v0.3v0.7h5.8v13.5h-5.8v2.7h5.8v12.1h-5.8v2.7H78c0.7,0,1.3-0.6,1.3-1.3V59.7C79.2,57.9,78.5,56.2,77.2,54.9z M71.1,36.8h-2.7v-2.7
	h2.7V36.8z"/>
<path class="st0" d="M70.6,72.1l-1.3-5.4c-0.2-0.6-0.7-1-1.3-1H49.1c-0.6,0-1.2,0.4-1.3,1l-1.3,5.4v0.3V106v0.3l1.3,5.4
	c0.2,0.6,0.7,1,1.3,1h18.8c0.6,0,1.2-0.4,1.3-1l1.3-5.4V106V72.4L70.6,72.1z M50.2,68.4h16.7l0.7,2.7H49.5L50.2,68.4z M66.9,110.1
	H50.2l-0.7-2.7h18.1L66.9,110.1z M67.9,104.7H49.1V73.8h18.8C67.9,73.8,67.9,104.7,67.9,104.7z"/>
</svg>
