<?xml version="1.0" encoding="utf-8"?>
<!-- Generator: Adobe Illustrator 27.0.0, SVG Export Plug-In . SVG Version: 6.00 Build 0)  -->
<svg version="1.1" id="Camada_1" xmlns="http://www.w3.org/2000/svg" xmlns:xlink="http://www.w3.org/1999/xlink" x="0px" y="0px"
	 viewBox="0 0 110 135" style="enable-background:new 0 0 110 135;" xml:space="preserve">
<style type="text/css">
	.st0{fill:#315432;}
</style>
<g>
	<path class="st0" d="M25.6,84.2c-1.1,0-2.2-0.2-3.2-0.6c-2-0.7-3.8-2-5.1-3.7c-2.6-3.3-3.3-7.6-3.6-11c-1-10.1,0.6-19.5,4.8-27
		c2.2-3.9,5-7.4,8.5-10.2c3.8-3.1,8-5.1,12.2-5.7c8.8-1.3,18.6,3.6,23.3,11.5c4.4,7.4,4.2,17.3-0.5,24.6l0,0c-1,1.5-2.1,2.9-3.5,4.1
		c-1.8,1.6-3.7,2.8-5.8,3.5c-2,0.7-4.2,1-6.2,1.3c-2.7,0.4-5.2,0.8-7.4,1.9c-1.8,1-3.1,2.8-4.3,4.7c-1.5,2.3-3.1,4.6-6,5.9
		C27.8,84,26.7,84.2,25.6,84.2L25.6,84.2z M41.9,29c-0.8,0-1.6,0.1-2.4,0.2c-8.4,1.2-15.1,8.5-18.3,14.3c-4.8,8.8-5.1,18.5-4.4,25.1
		c0.3,2.9,0.9,6.6,3,9.3c1.7,2.2,4.9,3.8,7.6,2.6c2-0.9,3.2-2.7,4.6-4.7c1.4-2.1,2.9-4.3,5.5-5.7c2.7-1.4,5.6-1.9,8.4-2.3
		c2-0.3,3.9-0.6,5.6-1.2c1.6-0.6,3.2-1.5,4.6-2.8l0,0c1.1-1,2.1-2.2,2.9-3.5c4-6.3,4.2-14.8,0.4-21.3C56,33.1,48.8,29,41.9,29
		L41.9,29z"/>
	<path class="st0" d="M25.6,78.9c-1.4,0-3-0.9-4.1-2.2c-1.8-2.3-2.3-5.6-2.6-8.2c-0.6-6.3-0.4-15.6,4.1-23.9c1.8-3.2,4.1-6,6.8-8.4
		c3.2-2.7,6.6-4.4,9.9-4.9c0.7-0.1,1.4-0.2,2.1-0.2c3,0,6.2,0.9,9.1,2.5c2.9,1.7,5.2,3.9,6.8,6.6c1.7,2.8,2.5,6.1,2.4,9.6
		s-1,6.7-2.8,9.5c-0.7,1.1-1.6,2.2-2.6,3.1c-1.2,1.1-2.5,1.9-3.9,2.4c-1.6,0.5-3.4,0.8-5.2,1.1c-2.9,0.4-6.1,0.9-9.1,2.5
		c-3,1.6-4.7,4.1-6.2,6.4c-1.2,1.8-2.3,3.3-3.7,4l0,0C26.3,78.8,26,78.9,25.6,78.9L25.6,78.9z M42,34.3c-0.6,0-1.1,0-1.7,0.1
		c-6,0.9-11.6,6.5-14.4,11.6c-4.2,7.6-4.4,16.2-3.8,22.1c0.2,2.2,0.6,5,1.9,6.6c0.4,0.6,1.1,0.9,1.5,1c0.6-0.4,1.5-1.7,2.2-2.8
		c1.5-2.3,3.7-5.4,7.4-7.4c3.5-1.9,7-2.4,10.2-2.9c1.7-0.3,3.4-0.5,4.7-0.9c1-0.3,1.9-0.9,2.8-1.7c0.8-0.7,1.5-1.5,2-2.4
		c1.4-2.2,2.2-4.9,2.3-7.8s-0.6-5.6-2-7.9C52.4,37.4,47.1,34.3,42,34.3L42,34.3z"/>
	<path class="st0" d="M43.7,50.3c-3.3,0-6.2-2.4-6.8-5.6c-0.6-3.3,1.1-6.5,4.2-7.8c3.1-1.3,6.6-0.2,8.5,2.6s1.5,6.5-0.9,8.8
		C47.3,49.5,45.5,50.3,43.7,50.3z M43.7,39.5c-1.8,0-3.4,1.3-3.7,3.1c-0.4,1.8,0.6,3.5,2.3,4.2s3.6,0.1,4.6-1.4s0.8-3.5-0.5-4.8
		C45.7,39.9,44.7,39.5,43.7,39.5L43.7,39.5z"/>
	<path class="st0" d="M59.8,109.2L59.8,109.2c-0.6,0-1-0.3-1.3-0.7c-2.3-3.4-2.8-8.2-2.9-10.9l0,0c-0.4,0-0.8,0.1-1.2,0.1
		c-4.9,0-9.9-2.8-10.2-2.9l0,0c-0.5-0.3-0.8-0.8-0.8-1.3c0-0.6,0.3-1.1,0.7-1.4c5.5-3.6,11.3-4.1,13.9-4.2
		c1.9-7.5,4.5-13.9,7.8-18.8c3-4.4,6.5-7.8,10.5-10.1c9.5-5.3,18.4-2.5,18.8-2.4l0,0c0.6,0.2,1,0.7,1.1,1.3
		c1.2,8.8-0.5,16.4-5.3,22.6c-4.9,6.4-12,10-17.1,11.9l0,0c-2.7,1-5.5,1.8-8.4,2.4c0.9,7-4.2,13.6-4.4,13.9
		C60.8,108.9,60.3,109.2,59.8,109.2L59.8,109.2z M57.2,94c0.4,0,0.9,0.2,1.2,0.5s0.5,0.8,0.4,1.2c0,0.1-0.2,4.8,1.2,8.7
		c1.4-2.5,3.2-6.7,2.1-10.6l0,0c-0.1-0.4,0-0.9,0.2-1.3c0.3-0.4,0.7-0.6,1.1-0.7c0,0,4.2-0.6,9.4-2.5c4.7-1.8,11.2-5.1,15.6-10.8
		c4-5.2,5.6-11.6,4.8-19.1l0,0c-1.3-0.3-2.7-0.4-4.1-0.4c-3.9-0.1-7.8,0.9-11.2,2.8c-8,4.5-13.7,13.9-17,28C60.7,90.5,60,91,59.2,91
		c-0.1,0-5.2-0.3-10.7,2.2c2.4,0.9,5.7,1.8,8.1,0.9C56.8,94,57,94,57.2,94L57.2,94z"/>
	<path class="st0" d="M86.7,68.2c-1.3,0-2.6-0.7-3.4-1.8c-0.8-1.1-0.9-2.5-0.4-3.8s1.6-2.2,2.9-2.4c1.3-0.3,2.7,0.2,3.6,1.1
		c1.2,1.2,1.5,2.9,0.9,4.4S88.3,68.2,86.7,68.2L86.7,68.2z M86.7,63.3c-0.4,0-0.7,0.3-0.8,0.7c-0.1,0.4,0.1,0.8,0.5,0.9
		c0.4,0.2,0.8,0,1-0.3s0.2-0.8-0.1-1.1C87.2,63.4,86.9,63.3,86.7,63.3L86.7,63.3z"/>
	<path class="st0" d="M65.4,74.4c-0.2,0-0.4,0-0.7-0.1L57.3,71c-0.6-0.3-1-0.9-0.9-1.6s0.5-1.2,1.2-1.4l11.9-3.2l0,0
		c0.4-0.1,0.9-0.1,1.2,0.1c0.4,0.2,0.7,0.6,0.8,1c0.1,0.4,0.1,0.9-0.2,1.2c-0.2,0.4-0.6,0.6-1,0.7l-7.6,2.1l3.3,1.5
		c0.7,0.3,1.1,1.1,0.9,1.8C66.8,73.8,66.2,74.4,65.4,74.4L65.4,74.4z"/>
	<path class="st0" d="M80.4,97.5c-0.6,0-1.2-0.4-1.5-1L76,89.6c-0.2-0.4-0.2-0.8,0-1.2c0.2-0.4,0.5-0.7,0.9-0.9
		c0.8-0.3,1.8,0,2.1,0.9l1.2,2.9l2-6.5l0,0c0.1-0.4,0.4-0.8,0.8-1s0.8-0.2,1.2-0.1c0.4,0.1,0.8,0.4,0.9,0.8c0.2,0.4,0.2,0.8,0.1,1.2
		L82,96.3C81.8,97,81.2,97.4,80.4,97.5L80.4,97.5L80.4,97.5z"/>
	<path class="st0" d="M90.9,79.3c-0.1,0-0.2,0-0.3,0c-4.3-0.7-8.3-2.8-11.5-5.8c-3.1-3.1-5.2-7.1-6-11.4c-0.2-0.9,0.4-1.7,1.3-1.9
		s1.7,0.4,1.9,1.3c0.6,3.7,2.4,7.1,5.1,9.7s6.1,4.4,9.7,5c0.8,0.1,1.4,0.9,1.3,1.7C92.4,78.7,91.7,79.4,90.9,79.3L90.9,79.3z"/>
	<path class="st0" d="M71.8,92.9c-0.5,0-1-0.2-1.3-0.6s-0.4-0.9-0.3-1.4c0.7-2.3,0.1-4.8-1.6-6.5s-4.1-2.4-6.5-1.9
		c-0.8,0.1-1.6-0.4-1.8-1.2c-0.2-0.8,0.3-1.7,1.1-1.9c3.4-0.9,7.1,0.2,9.5,2.8c2.5,2.6,3.4,6.2,2.4,9.6
		C73.1,92.4,72.5,92.9,71.8,92.9L71.8,92.9z"/>
</g>
</svg>
