<?xml version="1.0" encoding="utf-8"?>
<!-- Generator: Adobe Illustrator 27.0.0, SVG Export Plug-In . SVG Version: 6.00 Build 0)  -->
<svg version="1.1" id="Camada_1" xmlns="http://www.w3.org/2000/svg" xmlns:xlink="http://www.w3.org/1999/xlink" x="0px" y="0px"
	 viewBox="0 0 110 135" style="enable-background:new 0 0 110 135;" xml:space="preserve">
<style type="text/css">
	.st0{fill:#315432;}
</style>
<g>
	<path class="st0" d="M63.7,106.8H39c-0.8,0-1.5-0.7-1.5-1.5V50.1c0-2.5,2-4.4,4.4-4.4h34.7c2.5,0,4.4,2,4.4,4.4v29
		c0,0.8-0.7,1.5-1.5,1.5S78,79.9,78,79.1v-29c0-0.8-0.7-1.5-1.5-1.5H41.8c-0.8,0-1.5,0.7-1.5,1.5v53.7h23.3c0.8,0,1.5,0.7,1.5,1.5
		C65.2,106.1,64.5,106.8,63.7,106.8L63.7,106.8z"/>
	<path class="st0" d="M59.2,101H39c-0.8,0-1.5-0.7-1.5-1.5S38.2,98,39,98h20.2c0.8,0,1.5,0.7,1.5,1.5C60.6,100.3,60,101,59.2,101z"
		/>
	<path class="st0" d="M68.1,48.6c-0.8,0-1.5-0.7-1.5-1.5v-4.4H52.1v4.4c0,0.8-0.7,1.5-1.5,1.5s-1.5-0.7-1.5-1.5v-5.8
		c0-0.8,0.7-1.5,1.5-1.5h17.5c0.8,0,1.5,0.7,1.5,1.5v5.8C69.5,47.9,68.9,48.6,68.1,48.6L68.1,48.6z"/>
	<path class="st0" d="M63.7,42.8c-0.8,0-1.5-0.7-1.5-1.5v-5.8c0-0.8,0.7-1.5,1.5-1.5s1.5,0.7,1.5,1.5v5.8
		C65.2,42.1,64.5,42.8,63.7,42.8z"/>
	<path class="st0" d="M55,42.8c-0.8,0-1.5-0.7-1.5-1.5v-5.8c0-0.8,0.7-1.5,1.5-1.5s1.5,0.7,1.5,1.5v5.8C56.5,42.1,55.8,42.8,55,42.8
		z"/>
	<path class="st0" d="M71,37H47.7c-0.8,0-1.5-0.7-1.5-1.5v-5.8c0-0.8,0.7-1.5,1.5-1.5h17.5c4,0,7.3,3.3,7.3,7.3
		C72.5,36.3,71.8,37,71,37L71,37z M49.2,34h20.1c-0.6-1.7-2.2-2.9-4.1-2.9h-16L49.2,34z"/>
	<path class="st0" d="M79.7,55.8H39c-0.8,0-1.5-0.7-1.5-1.5s0.7-1.5,1.5-1.5h40.7c0.8,0,1.5,0.7,1.5,1.5S80.5,55.8,79.7,55.8z"/>
	<path class="st0" d="M59.2,87.9H44.8c-0.8,0-1.5-0.7-1.5-1.5V66c0-0.8,0.7-1.5,1.5-1.5h29.1c0.8,0,1.5,0.7,1.5,1.5v13.1
		c0,0.8-0.7,1.5-1.5,1.5s-1.5-0.7-1.5-1.5V67.5H46.3V85h12.9c0.8,0,1.5,0.7,1.5,1.5C60.6,87.2,60,87.9,59.2,87.9L59.2,87.9z"/>
	<path class="st0" d="M39,106.8H9.9c-0.8,0-1.5-0.7-1.5-1.5V57.5c0-3.3,2.7-6,6-6h22.9c0.8,0,1.5,0.1,2.2,0.4
		c0.8,0.3,1.1,1.1,0.8,1.9c-0.3,0.8-1.1,1.1-1.9,0.8c-0.3-0.1-0.7-0.2-1.1-0.2H14.4c-1.7,0-3.1,1.4-3.1,3.1v46.4H39
		c0.8,0,1.5,0.7,1.5,1.5C40.5,106.1,39.8,106.8,39,106.8L39,106.8z"/>
	<path class="st0" d="M39,64.6H9.9c-0.8,0-1.5-0.7-1.5-1.5s0.7-1.5,1.5-1.5H39c0.8,0,1.5,0.7,1.5,1.5C40.5,63.9,39.8,64.6,39,64.6z"
		/>
	<path class="st0" d="M39,96.6H9.9c-0.8,0-1.5-0.7-1.5-1.5s0.7-1.5,1.5-1.5H39c0.8,0,1.5,0.7,1.5,1.5S39.8,96.6,39,96.6z"/>
	<path class="st0" d="M33.2,54.4H18.6c-0.8,0-1.5-0.7-1.5-1.5v-8.7c0-0.8,0.7-1.5,1.5-1.5h14.5c0.8,0,1.5,0.7,1.5,1.5V53
		C34.6,53.8,34,54.4,33.2,54.4z M20.1,51.5h11.6v-5.8H20.1V51.5z"/>
	<path class="st0" d="M30.3,45.7h-8.7c-0.8,0-1.5-0.7-1.5-1.5v-8.7c0-0.8,0.7-1.5,1.5-1.5h8.7c0.8,0,1.5,0.7,1.5,1.5v8.7
		C31.7,45,31.1,45.7,30.3,45.7z M23,42.8h5.8V37H23V42.8z"/>
	<path class="st0" d="M95.5,106.8H63.7c-3.3,0-6-2.7-6-6V83.7c0-3.3,2.7-6,6-6h31.8c3.3,0,6,2.7,6,6v17.1
		C101.5,104.1,98.9,106.8,95.5,106.8L95.5,106.8z M63.7,80.6c-1.7,0-3.1,1.4-3.1,3.1v17.1c0,1.7,1.4,3.1,3.1,3.1h31.8
		c1.7,0,3.1-1.4,3.1-3.1V83.7c0-1.7-1.4-3.1-3.1-3.1H63.7z"/>
	<path class="st0" d="M87.7,98h-16c-2,0-3.6-1.6-3.6-3.6V90c0-2,1.6-3.6,3.6-3.6h16c2,0,3.6,1.6,3.6,3.6v4.4
		C91.4,96.4,89.7,98,87.7,98z M71.7,89.3c-0.4,0-0.7,0.3-0.7,0.7v4.4c0,0.4,0.3,0.7,0.7,0.7h16c0.4,0,0.7-0.3,0.7-0.7V90
		c0-0.4-0.3-0.7-0.7-0.7H71.7z"/>
	<path class="st0" d="M31,85H19.4c-2,0-3.6-1.6-3.6-3.6v-5.8c0-2,1.6-3.6,3.6-3.6H31c2,0,3.6,1.6,3.6,3.6v5.8C34.6,83.3,33,85,31,85
		z M19.4,74.8c-0.4,0-0.7,0.3-0.7,0.7v5.8c0,0.4,0.3,0.7,0.7,0.7H31c0.4,0,0.7-0.3,0.7-0.7v-5.8c0-0.4-0.3-0.7-0.7-0.7H19.4z"/>
</g>
</svg>
