<?xml version="1.0" encoding="utf-8"?>
<!-- Generator: Adobe Illustrator 27.0.0, SVG Export Plug-In . SVG Version: 6.00 Build 0)  -->
<svg version="1.1" id="Camada_1" xmlns="http://www.w3.org/2000/svg" xmlns:xlink="http://www.w3.org/1999/xlink" x="0px" y="0px"
	 viewBox="0 0 110 135" style="enable-background:new 0 0 110 135;" xml:space="preserve">
<style type="text/css">
	.st0{fill:#315432;}
</style>
<g>
	<path class="st0" d="M9.8,96.3c0,6.6,7.7,8.5,13.5,9.4c7.6,1.1,18.4,1.1,29.7,1.1v-1.5l0.2,1.5c9.3,0,18.2,0,25.3-0.6
		c5.2,4.8,9.8,7.9,13.6,7.9c1.7,0,3.2-0.6,4.6-1.8c4.9-4.3,4.6-14.4-0.8-26.4c-0.9-2.1-2.1-4.2-3.2-6.3c-2.2-3.9-4.9-7.8-8-11.4
		c-0.4-0.5-0.9-1.1-1.4-1.6c-1.3-1.4-2.6-2.9-3.9-4.2c-2.3-2.3-4.8-4.5-7.2-6.4c2.7-1.5,7.7-5.5,7.7-14.1c0-4.7-1.7-8.7-5-11.9
		c-9.3-9.1-28.3-9-29.9-9c-1.7,0-20.7-0.1-29.9,8.9c-3.3,3.2-5,7.2-5,11.9c0,9.3,5.9,13.2,8.3,14.4v28.5
		C12.9,88.2,9.8,92.2,9.8,96.3L9.8,96.3z M20.4,53.8c-0.3-0.1-7.3-2.6-7.3-12c0-3.9,1.3-7.1,4.1-9.8c8-7.8,25-8.1,27.5-8.1h0.1h0.1
		H45h0.1c1.9,0,19.6,0.1,27.7,8.1c2.7,2.7,4.1,5.9,4.1,9.8c0,9.4-7,11.9-7.3,12c-0.1,0-0.1,0.1-0.1,0.1c-0.5-0.4-1-0.7-1.5-1.1
		c-0.5-0.4-1-0.7-1.6-1c-0.1-0.1-0.2-0.1-0.3-0.2c3-1.6,6.1-4.5,6.1-9c0-3-1.1-5.6-3.3-7.8C62,28,46.3,28,45,28.1
		c-1.3,0-17-0.1-24,6.7c-2.2,2.2-3.3,4.8-3.3,7.8c0,6,5.3,9.1,8.9,10.2v28c-0.2,0.1-0.5,0.2-0.7,0.3c-1.6,0.6-3.1,1.3-4.4,2V55.3
		C21.4,54.6,21,54,20.4,53.8L20.4,53.8z M92.6,85.9c-2.6,1.5-5,3.2-6.8,4.6c1.1-3.1,3.2-5.8,5.2-7.8C91.5,83.8,92.1,84.8,92.6,85.9
		L92.6,85.9z M89.4,80c-4.6,4.4-7.2,9.3-7.5,14.4c0,0.6,0.3,1.2,0.9,1.4c0.2,0.1,0.4,0.1,0.6,0.1c0.4,0,0.8-0.1,1-0.4
		c0,0,4.1-3.9,9.3-6.9c4.1,9.8,4.5,18.3,0.9,21.4c-0.8,0.7-1.6,1-2.6,1c-6.5,0-17.7-12.8-29.4-26.3l-1.1,1l1-1.1
		C49,68.9,36.1,54.2,41.8,49.3c3-2.6,9.4-2,16.9,1.6c-2.9,3.6-4.5,7.4-4.7,11.4c0,0.6,0.3,1.2,0.9,1.4c0.2,0.1,0.4,0.1,0.6,0.1
		c0.4,0,0.8-0.1,1-0.4c0.1-0.1,4.8-4.6,10.5-7.6c3.1,2.2,6.2,4.7,9.1,7.5c-3.8,3.4-7.8,8.5-8.1,15c0,0.6,0.3,1.2,0.9,1.4
		c0.2,0.1,0.4,0.1,0.6,0.1c0.4,0,0.8-0.1,1-0.4c0.1-0.1,5.9-5.6,12.5-8.6C85.4,73.9,87.6,76.9,89.4,80L89.4,80z M53.2,103.8H53
		c-11.2,0-21.8,0-29.3-1.1c-9.8-1.5-10.9-4.4-10.9-6.4c0-4,4.7-8.4,12.3-11.7c0.8,4.6,2.6,8.3,5.5,11.1c0.3,0.3,0.7,0.4,1.1,0.4
		c0.2,0,0.4,0,0.6-0.1c0.6-0.2,0.9-0.8,0.9-1.4c0-0.1-0.3-6.6,1.2-13C38.1,80.7,42,80,46,79.7c0.1,5.1,1.3,11.4,5.9,16
		c0.3,0.3,0.7,0.4,1.1,0.4c0.2,0,0.4,0,0.6-0.1c0.6-0.2,0.9-0.8,0.9-1.4c0-0.1-0.3-6.8,1.2-13.3c1.5,1.7,3,3.4,4.6,5.2l0.1,0.1
		c5.5,6.3,10.6,12.1,15.2,16.8C69.1,103.8,61.3,103.8,53.2,103.8L53.2,103.8z M28.4,50.2c-0.3-0.1-7.7-1.7-7.7-7.6
		c0-2.2,0.8-4.1,2.4-5.7C29,31.1,43.4,31,44.9,31H45l0,0h0.1c1.4,0,15.8,0.1,21.8,5.9c1.6,1.6,2.4,3.4,2.4,5.7c0,4.3-4,6.4-6.2,7.1
		c-0.4-0.2-0.8-0.5-1.2-0.7c-9.5-5-17.7-5.8-21.9-2.1c-6.4,5.6,0.5,16,11.7,29.3h-0.3c-1.3,0-2.6,0.1-3.9,0.2
		c-5.1,0.3-10,1.1-14.6,2.3c-0.6,0.2-1.2,0.3-1.8,0.5c-0.5,0.1-0.9,0.3-1.4,0.4V51.7C29.5,51,29,50.3,28.4,50.2L28.4,50.2z
		 M57.8,58.4c0.7-2.1,1.9-4.1,3.6-6.1c0.9,0.5,1.9,1.1,2.8,1.7C61.7,55.4,59.5,57.1,57.8,58.4L57.8,58.4z M49,79.5
		c1.4-0.1,2.8-0.1,4.1-0.1c-1.1,3.9-1.5,7.9-1.6,10.9C49.6,86.8,49,82.8,49,79.5L49,79.5z M28,83.5c1-0.4,2.1-0.7,3.1-1
		c-0.6,2.9-0.8,5.6-0.9,7.8C29.1,88.3,28.4,86,28,83.5L28,83.5z M81,68.5L81,68.5c-3.6,1.8-6.9,4.1-9.2,6c1.3-3.7,4-6.8,6.5-9
		C79.2,66.4,80.1,67.4,81,68.5L81,68.5z"/>
</g>
</svg>
