<?xml version="1.0" encoding="utf-8"?>
<!-- Generator: Adobe Illustrator 27.0.0, SVG Export Plug-In . SVG Version: 6.00 Build 0)  -->
<svg version="1.1" id="Camada_1" xmlns="http://www.w3.org/2000/svg" xmlns:xlink="http://www.w3.org/1999/xlink" x="0px" y="0px"
	 viewBox="0 0 110 135" style="enable-background:new 0 0 110 135;" xml:space="preserve">
<style type="text/css">
	.st0{fill:#315432;stroke:#315432;stroke-linecap:round;stroke-linejoin:round;stroke-miterlimit:10;}
</style>
<path class="st0" d="M82.4,59.3h-3V38.5c0-2.5-1.8-4.6-4.1-5.2v-4.1c0-0.6-0.4-1-1-1h-1.9v-1.8c0-2.1-1.7-3.7-3.7-3.7
	c-2.1,0-3.7,1.7-3.7,3.7v1.8h-1.9c-0.6,0-1,0.4-1,1v4.1C59.7,33.9,58,36,58,38.5v20.9h-5.5V47.2c0-0.2-0.1-0.4-0.2-0.6l-4.5-6.2
	v-2.3h1.8c0.6,0,1-0.4,1-1c0-5.7-4.6-10.4-10.4-10.4h-13c-0.6,0-1,0.4-1,1v4.8c0,0.6,0.4,1,1,1h4.7l0.8,0.6c-0.8,1-1.9,3.1-1.6,6
	c0.1,0.5,0.5,0.9,1,0.9h0.1c0.6-0.1,0.9-0.5,0.9-1.1c-0.2-2.3,0.6-3.9,1.2-4.6l3.2,2.5v2.6L33,46.6c-0.1,0.2-0.2,0.4-0.2,0.6v12.1
	h-5.2c-2,0-3.6,1.6-3.6,3.6v2.3c0,2,1.6,3.6,3.6,3.6h0.3l4.8,39c0.3,2.6,2.5,4.6,5.2,4.6h34.4c2.6,0,4.9-2,5.2-4.6l4.8-39h0.3
	c2,0,3.6-1.6,3.6-3.6v-2.3C86,60.9,84.4,59.3,82.4,59.3L82.4,59.3z M67,26.4c0-1,0.8-1.7,1.7-1.7c1,0,1.7,0.8,1.7,1.7v1.8H67V26.4
	L67,26.4z M64.2,30.1h9.2v3h-9.2V30.1z M63.4,35.1h10.8c1.8,0,3.3,1.5,3.3,3.3v7.8H60v-7.8C60,36.6,61.5,35.1,63.4,35.1L63.4,35.1z
	 M60,48.2h17.4v11.1H60V48.2z M62.4,70c1,1,2.4,3.3,2.5,5.6v15.6c0,0.5-0.4,0.9-0.9,0.9c-0.2,0-0.4-0.1-0.6-0.2s-0.2-0.4-0.2-0.6
	v-7.5c0-0.6-0.4-1-1-1s-1,0.4-1,1V95c0,0.6-0.5,1.1-1.1,1.1S59,95.6,59,95v-1.5c0.6-0.5,1.1-1.3,1.1-2.2V75.6
	c-0.1-2.9-1.7-5.4-2.8-6.7v-7.6h5v8C62.1,69.6,62.2,69.9,62.4,70L62.4,70z M50.9,82.7c-0.6,0-1,0.4-1,1v15.2c0,0.6-0.5,1.1-1.1,1.1
	s-1.1-0.5-1.1-1.1V83.7c0-0.6-0.4-1-1-1s-1,0.4-1,1V95c0,0.6-0.5,1.1-1.1,1.1s-1.1-0.5-1.1-1.1V79.2c0-0.5-0.4-0.9-0.8-1
	c-0.5-0.1-0.9,0.2-1.1,0.7c0,0-1.4,3.8-3.6,3.8l0,0c-0.2,0-0.6,0-0.8-0.2c-0.1-0.1-0.4-0.9,0.9-3.4c0.2-0.4,0.4-0.9,0.6-1.6
	c0.8-2.3,1.9-5.9,5.5-6.5c0.5-0.1,0.8-0.5,0.8-1v-8.7h6.7h3.6v8c0,0.3,0.1,0.5,0.3,0.7c1,1,2.4,3.3,2.5,5.6v15.6
	c0,0.5-0.4,0.9-0.9,0.9c-0.2,0-0.4-0.1-0.6-0.2s-0.2-0.4-0.2-0.6v-7.5c0-0.6-0.4-1-1-1s-1,0.4-1,1V95c0,0.6-0.5,1.1-1.1,1.1
	s-1.1-0.5-1.1-1.1V83.7C51.9,83.2,51.5,82.7,50.9,82.7L50.9,82.7z M54.6,97.7c1-0.5,1.6-1.6,1.6-2.7v-1c0.2,0.1,0.4,0.1,0.7,0.1v4.8
	c0,0.6-0.5,1.1-1.1,1.1s-1.1-0.5-1.1-1.1L54.6,97.7L54.6,97.7z M45.9,39.8h-6.4v-1.6h6.4V39.8z M48.6,36.1H38.4l-5.2-4v-3.3h7
	C44.5,28.8,48.1,32,48.6,36.1L48.6,36.1z M28.3,28.8h3v2.8h-3V28.8z M34.8,47.6l4.2-5.8h7.4l4.2,5.8v11.8H34.8V47.6L34.8,47.6z
	 M26,65.2v-2.3c0-0.9,0.7-1.6,1.6-1.6h15.3v5.5H27.6C26.7,66.8,26,66.1,26,65.2L26,65.2z M75.4,107.6c-0.2,1.6-1.6,2.8-3.2,2.8H37.8
	c-1.6,0-3-1.2-3.2-2.8l-4.7-38.7h13v0.4c-4.1,1.2-5.5,5.4-6.2,7.6c-0.2,0.6-0.3,1-0.5,1.3c-1.3,2.5-1.6,4.2-0.9,5.3
	c0.3,0.5,1,1.2,2.4,1.2c1.5,0,2.7-0.8,3.6-1.8V95c0,1.7,1.4,3.1,3.1,3.1c0.4,0,0.8-0.1,1.1-0.2v1c0,1.7,1.4,3.1,3.1,3.1
	s3.1-1.4,3.1-3.1v-1c0.2,0.1,0.4,0.1,0.7,0.2v0.8c0,1.7,1.4,3.1,3.1,3.1c1.7,0,3.1-1.4,3.1-3.1v-1c0.4,0.1,0.7,0.2,1.1,0.2
	c1.7,0,3.1-1.4,3.1-3.1v-1c0.3,0.1,0.6,0.1,0.9,0.1c1.6,0,2.9-1.3,2.9-2.9V75.7c-0.1-2.9-1.7-5.4-2.8-6.7v-0.1h16L75.4,107.6
	L75.4,107.6z M84,65.2c0,0.9-0.7,1.6-1.6,1.6H64.1v-5.5h18.3c0.9,0,1.6,0.7,1.6,1.6C84,62.9,84,65.2,84,65.2z"/>
</svg>
